<?xml version="1.0" encoding="UTF-8"?>
<svg id="Layer_2" data-name="Layer 2" xmlns="http://www.w3.org/2000/svg" xmlns:xlink="http://www.w3.org/1999/xlink" viewBox="0 0 1054.07 237.86">
  <defs>
    <style>
      .cls-1 {
        fill: url(#linear-gradient-15);
      }

      .cls-2 {
        fill: url(#linear-gradient-13);
      }

      .cls-3 {
        clip-path: url(#clippath-6);
      }

      .cls-4 {
        clip-path: url(#clippath-7);
      }

      .cls-5 {
        mask: url(#mask-5);
      }

      .cls-6 {
        clip-path: url(#clippath-4);
      }

      .cls-7 {
        fill: url(#linear-gradient-2);
      }

      .cls-8 {
        mask: url(#mask-1);
      }

      .cls-9 {
        fill: url(#linear-gradient-10);
      }

      .cls-10 {
        fill: url(#linear-gradient-12);
      }

      .cls-11 {
        mask: url(#mask-6);
      }

      .cls-12 {
        clip-path: url(#clippath-9);
      }

      .cls-13 {
        mask: url(#mask-7);
      }

      .cls-14 {
        clip-path: url(#clippath-10);
      }

      .cls-15 {
        mask: url(#mask);
      }

      .cls-16 {
        fill: #fcc102;
      }

      .cls-16, .cls-17, .cls-18, .cls-19, .cls-20 {
        fill-rule: evenodd;
      }

      .cls-21 {
        clip-path: url(#clippath-11);
      }

      .cls-22, .cls-23 {
        fill: none;
      }

      .cls-24 {
        fill: url(#linear-gradient-4);
      }

      .cls-25 {
        mask: url(#mask-8);
      }

      .cls-26 {
        mask: url(#mask-2);
      }

      .cls-27 {
        mask: url(#mask-9);
      }

      .cls-28 {
        fill: url(#linear-gradient-3);
      }

      .cls-29 {
        clip-path: url(#clippath-1);
      }

      .cls-30 {
        fill: url(#linear-gradient-5);
      }

      .cls-31 {
        clip-path: url(#clippath-5);
      }

      .cls-32 {
        clip-path: url(#clippath-8);
      }

      .cls-33 {
        fill: url(#linear-gradient-8);
      }

      .cls-17 {
        fill: #fff100;
      }

      .cls-34 {
        clip-path: url(#clippath-3);
      }

      .cls-35 {
        clip-path: url(#clippath-12);
      }

      .cls-18 {
        fill: #0065ae;
      }

      .cls-36 {
        fill: url(#linear-gradient-14);
      }

      .cls-23 {
        clip-rule: evenodd;
      }

      .cls-37 {
        fill: url(#linear-gradient-20);
      }

      .cls-38 {
        fill: url(#linear-gradient-17);
      }

      .cls-39 {
        fill: url(#linear-gradient-7);
      }

      .cls-40 {
        fill: url(#linear-gradient-9);
      }

      .cls-19 {
        fill: #1a1a18;
      }

      .cls-41 {
        fill: url(#linear-gradient-11);
      }

      .cls-42 {
        fill: url(#linear-gradient-19);
      }

      .cls-43 {
        fill: url(#linear-gradient-6);
      }

      .cls-44 {
        clip-path: url(#clippath-2);
      }

      .cls-45 {
        mask: url(#mask-4);
      }

      .cls-46 {
        fill: url(#linear-gradient-16);
      }

      .cls-20 {
        fill: #28a580;
      }

      .cls-47 {
        fill: url(#linear-gradient);
      }

      .cls-48 {
        clip-path: url(#clippath);
      }

      .cls-49 {
        fill: url(#linear-gradient-18);
      }

      .cls-50 {
        mask: url(#mask-3);
      }
    </style>
    <clipPath id="clippath">
      <path class="cls-22" d="M302.4,84.17s-7.19-30.78-32.23-46.43c-48.67-30.41-81.7,4.58-109.71,40.07C127.12,120.07,60.32,218.42,13.18,194.88c40.46,50.94,92.75,22.85,123.4-10.38,49.15-53.28,93.01-132.42,137.5-118.8,9.27,2.84,18.91,8.19,28.32,18.46"/>
    </clipPath>
    <linearGradient id="linear-gradient" x1="4596.56" y1="45.74" x2="4832.72" y2="206.74" gradientTransform="translate(4872.92) rotate(-180) scale(1 -1)" gradientUnits="userSpaceOnUse">
      <stop offset="0" stop-color="#67c5e1"/>
      <stop offset="1" stop-color="#0e9653"/>
    </linearGradient>
    <clipPath id="clippath-1">
      <path class="cls-22" d="M302.4,84.17s-7.19-30.78-32.23-46.43c-48.67-30.41-81.7,4.58-109.71,40.07C127.12,120.07,60.32,218.42,13.18,194.88c40.46,50.94,92.75,22.85,123.4-10.38,49.15-53.28,93.01-132.42,137.5-118.8,9.27,2.84,18.91,8.19,28.32,18.46"/>
    </clipPath>
    <linearGradient id="linear-gradient-2" x1="4643.4" y1="738.05" x2="4620.06" y2="712.29" gradientTransform="translate(4785.64 -595.98) rotate(-180) scale(1 -1)" gradientUnits="userSpaceOnUse">
      <stop offset="0" stop-color="#fff"/>
      <stop offset="1" stop-color="#000"/>
    </linearGradient>
    <mask id="mask" x="119.9" y="94.21" width="69.17" height="68.69" maskUnits="userSpaceOnUse">
      <rect class="cls-7" x="119.9" y="94.21" width="69.17" height="68.69"/>
    </mask>
    <linearGradient id="linear-gradient-3" x1="4638.5" y1="731.45" x2="4662.13" y2="759.81" gradientTransform="translate(4771.57 -580.8) rotate(-180) scale(1 -1)" xlink:href="#linear-gradient-2"/>
    <mask id="mask-1" x="88.25" y="128.85" width="68.96" height="68.44" maskUnits="userSpaceOnUse">
      <rect class="cls-28" x="88.25" y="128.85" width="68.96" height="68.44"/>
    </mask>
    <clipPath id="clippath-2">
      <path class="cls-22" d="M302.3,84l.1.15c-.16-.69-7.47-30.94-32.23-46.41-48.67-30.41-81.7,4.58-109.71,40.07C127.12,120.07,60.32,218.42,13.18,194.89h0c71.47,51.75,122.03-68.93,189.13-129.95,34.47-31.35,68.37-33.12,99.99,19.07"/>
    </clipPath>
    <linearGradient id="linear-gradient-4" x1="4820.95" y1="213.74" x2="4621.15" y2="49.93" xlink:href="#linear-gradient"/>
    <clipPath id="clippath-3">
      <path class="cls-22" d="M302.3,84l.1.15c-.16-.69-7.47-30.94-32.23-46.41-48.67-30.41-81.7,4.58-109.71,40.07C127.12,120.07,60.32,218.42,13.18,194.89h0c71.47,51.75,122.03-68.93,189.13-129.95,34.47-31.35,68.37-33.12,99.99,19.07"/>
    </clipPath>
    <mask id="mask-2" x="119.9" y="94.21" width="69.17" height="68.69" maskUnits="userSpaceOnUse">
      <rect class="cls-7" x="119.9" y="94.21" width="69.17" height="68.69"/>
    </mask>
    <linearGradient id="linear-gradient-5" x1="4638.5" y1="731.45" x2="4662.13" y2="759.81" gradientTransform="translate(4771.57 -580.8) rotate(-180) scale(1 -1)" xlink:href="#linear-gradient-2"/>
    <mask id="mask-3" x="88.25" y="128.85" width="68.96" height="68.44" maskUnits="userSpaceOnUse">
      <rect class="cls-30" x="88.25" y="128.85" width="68.96" height="68.44"/>
    </mask>
    <clipPath id="clippath-4">
      <path class="cls-23" d="M121.05,0c-17.51,0-31.71,14.2-31.71,31.71,0,17.51,14.2,31.71,31.71,31.71,17.51,0,31.71-14.2,31.71-31.71,0-17.51-14.2-31.71-31.71-31.71"/>
    </clipPath>
    <linearGradient id="linear-gradient-6" x1="4649.03" y1="669.14" x2="4638.55" y2="724.41" gradientTransform="translate(4769.61 -639.89) rotate(-180) scale(1 -1)" xlink:href="#linear-gradient-2"/>
    <mask id="mask-4" x="89.33" y="0" width="63.42" height="63.42" maskUnits="userSpaceOnUse">
      <rect class="cls-43" x="89.33" y="0" width="63.42" height="63.42"/>
    </mask>
    <linearGradient id="linear-gradient-7" x1="4649.58" y1="652.46" x2="4646.32" y2="677.76" gradientTransform="translate(4768.25 -653.27) rotate(-180) scale(1 -1)" xlink:href="#linear-gradient-2"/>
    <mask id="mask-5" x="92.41" y="2.05" width="57.28" height="31.07" maskUnits="userSpaceOnUse">
      <rect class="cls-39" x="92.41" y="2.05" width="57.28" height="31.07"/>
    </mask>
    <clipPath id="clippath-5">
      <path class="cls-22" d="M3.21,132.55c10.2-36.93,41.93-52.35,68.09-51.82,42.27.86,78.68,40.07,113.88,73.27,36.99,34.89,70,58.7,109.31,37.21,0,0-22.25,45.05-68.02,46.55,0,0-38.97,5.04-89.9-53.25-27.77-29.2-90.12-82.72-133.37-51.96"/>
    </clipPath>
    <linearGradient id="linear-gradient-8" x1="4837.97" y1="95.71" x2="4622.33" y2="220.24" xlink:href="#linear-gradient"/>
    <clipPath id="clippath-6">
      <path class="cls-22" d="M292.48,192.28l-.03.07s.06-.06.09-.09c0,0-.1.18-.31.51-2.07,3.31-14.69,21.67-41.03,23.84-35.84,2.96-67.4-25.11-91.29-48.28-26.5-24.78-67.64-67.97-108.56-65.04-21.86,1.57-38.5,12.64-48.12,29.25h0c43.25-30.75,105.59,22.77,133.36,51.97,50.94,58.28,89.9,53.25,89.9,53.25,45.77-1.5,68.02-46.55,68.02-46.55-.66.36-1.32.71-1.97,1.04-.02,0-.03.02-.05.03"/>
    </clipPath>
    <linearGradient id="linear-gradient-9" x1="4618.13" y1="224.71" x2="4850.95" y2="107.93" xlink:href="#linear-gradient"/>
    <clipPath id="clippath-7">
      <path class="cls-22" d="M272.23,65.2c5.39,20.56,18.67,86.1-15.32,133.66-10.67-1.44-21.09-5.83-31.52-12.27.06-.06,51.41-50.99,2.48-106.6,14.87-12.09,29.59-18.47,44.37-14.79"/>
    </clipPath>
    <linearGradient id="linear-gradient-10" x1="4629.2" y1="136.5" x2="4584.76" y2="117.06" xlink:href="#linear-gradient"/>
    <clipPath id="clippath-8">
      <path class="cls-22" d="M301.73,83.45c.06.11,23.62,46.64-7.23,107.76-13.1,7.16-25.51,9.29-37.59,7.66,33.99-47.56,20.71-113.1,15.32-133.66.62.15,1.23.32,1.85.51,9.05,2.77,18.45,7.94,27.65,17.73"/>
    </clipPath>
    <linearGradient id="linear-gradient-11" x1="4579.45" y1="78.05" x2="4584.3" y2="191.48" xlink:href="#linear-gradient"/>
    <clipPath id="clippath-9">
      <path class="cls-22" d="M24.29,123.95c-2.68,10.59-9.02,45.41,14.14,73.3,6.91-1.65,14.01-4.91,21.17-9.37-.38-.12-12.26-4.21-16.83-28.8,0,0-3.06-20.75,8.03-33.03v-.2c-8.98-2.39-17.92-3.23-26.5-1.9"/>
    </clipPath>
    <linearGradient id="linear-gradient-12" x1="4834.51" y1="130.09" x2="4836.55" y2="192.64" xlink:href="#linear-gradient"/>
    <clipPath id="clippath-10">
      <path class="cls-22" d="M3.21,132.55s-11.85,31.67,9.96,62.34c7.95,3.97,16.45,4.47,25.26,2.36-23.16-27.88-16.82-62.71-14.14-73.3-7.35,1.14-14.44,3.87-21.08,8.6"/>
    </clipPath>
    <linearGradient id="linear-gradient-13" x1="4861.31" y1="163.74" x2="4840.7" y2="150.69" xlink:href="#linear-gradient"/>
    <clipPath id="clippath-11">
      <path class="cls-23" d="M301.73,83.45c.06.11,23.62,46.64-7.23,107.76-24.67,13.49-46.86,9.13-69.11-4.61.06-.06,51.41-50.99,2.48-106.6,15.49-12.59,30.82-18.99,46.22-14.28,9.05,2.77,18.45,7.94,27.65,17.73"/>
    </clipPath>
    <linearGradient id="linear-gradient-14" x1="4580" y1="561.93" x2="4580" y2="733.73" gradientTransform="translate(4839.8 -619.68) rotate(-180) scale(1 -1)" xlink:href="#linear-gradient-2"/>
    <mask id="mask-6" x="207.85" y="50.46" width="103.91" height="58.74" maskUnits="userSpaceOnUse">
      <rect class="cls-36" x="207.85" y="50.46" width="103.91" height="58.74"/>
    </mask>
    <linearGradient id="linear-gradient-15" x1="4653.28" y1="899.52" x2="4564.63" y2="748.17" gradientTransform="translate(4832.18 -575.23) rotate(-180) scale(1 -1)" xlink:href="#linear-gradient-2"/>
    <mask id="mask-7" x="219.93" y="171.25" width="74.57" height="38.66" maskUnits="userSpaceOnUse">
      <rect class="cls-1" x="219.93" y="171.25" width="74.57" height="38.66"/>
    </mask>
    <clipPath id="clippath-12">
      <path class="cls-23" d="M3.21,132.55s-11.85,31.67,9.96,62.34c14.18,7.08,30.14,3.12,46.43-7.01-.38-.12-12.26-4.21-16.83-28.8,0,0-3.06-20.75,8.03-33.03v-.2c-16.66-4.44-33.18-3.55-47.58,6.7"/>
    </clipPath>
    <linearGradient id="linear-gradient-16" x1="4707.13" y1="646.72" x2="4707.13" y2="759.65" gradientTransform="translate(4731.06 -602.7) rotate(-180) scale(1 -1)" xlink:href="#linear-gradient-2"/>
    <mask id="mask-8" x="-17.55" y="107" width="82.97" height="40.68" maskUnits="userSpaceOnUse">
      <rect class="cls-46" x="-17.55" y="107" width="82.97" height="40.68"/>
    </mask>
    <linearGradient id="linear-gradient-17" x1="4680.37" y1="839.89" x2="4694.03" y2="754.73" gradientTransform="translate(4732.14 -577.54) rotate(-180) scale(1 -1)" xlink:href="#linear-gradient-2"/>
    <mask id="mask-9" x="13.18" y="179.82" width="54.7" height="24.85" maskUnits="userSpaceOnUse">
      <rect class="cls-38" x="13.18" y="179.82" width="54.7" height="24.85"/>
    </mask>
    <linearGradient id="linear-gradient-18" x1="958.61" y1="70.78" x2="958.61" y2="242.26" gradientTransform="translate(0 278.77) scale(1 -1)" gradientUnits="userSpaceOnUse">
      <stop offset="0" stop-color="#00954c"/>
      <stop offset="1" stop-color="#0bc0eb"/>
    </linearGradient>
    <linearGradient id="linear-gradient-19" x1="708.34" y1="48.39" x2="708.34" y2="238.35" xlink:href="#linear-gradient-18"/>
    <linearGradient id="linear-gradient-20" x1="466.69" y1="48.39" x2="466.69" y2="238.35" xlink:href="#linear-gradient-18"/>
  </defs>
  <g id="Layer_1-2" data-name="Layer 1">
    <g>
      <g>
        <g class="cls-48">
          <rect class="cls-47" x="13.18" y="7.33" width="289.22" height="238.49"/>
        </g>
        <g class="cls-29">
          <g class="cls-15">
            <polygon class="cls-19" points="161.85 162.89 119.9 125.95 147.12 94.21 189.07 131.15 161.85 162.89"/>
          </g>
          <g class="cls-8">
            <polygon class="cls-19" points="130.2 197.29 88.25 160.35 115.25 128.85 157.2 165.79 130.2 197.29"/>
          </g>
        </g>
        <g class="cls-44">
          <rect class="cls-24" x="13.18" y="7.33" width="289.22" height="239.31"/>
        </g>
        <g class="cls-34">
          <g class="cls-26">
            <polygon class="cls-19" points="161.85 162.89 119.9 125.95 147.12 94.21 189.07 131.15 161.85 162.89"/>
          </g>
          <g class="cls-50">
            <polygon class="cls-19" points="130.2 197.29 88.25 160.35 115.25 128.85 157.2 165.79 130.2 197.29"/>
          </g>
        </g>
        <path class="cls-16" d="M302.4,84.17c-31.65-52.35-65.58-50.6-100.09-19.23C135.21,125.95,84.65,246.65,13.18,194.88c70.75,59.47,120.65-61.47,189.85-127.1,34.32-32.55,67.69-30.83,99.37,16.38"/>
        <path class="cls-18" d="M121.05,0c-17.51,0-31.71,14.2-31.71,31.71,0,17.51,14.2,31.71,31.71,31.71,17.51,0,31.71-14.2,31.71-31.71,0-17.51-14.2-31.71-31.71-31.71"/>
        <g class="cls-6">
          <g class="cls-45">
            <path class="cls-20" d="M121.05,0c-17.51,0-31.71,14.2-31.71,31.71,0,17.51,14.2,31.71,31.71,31.71,17.51,0,31.71-14.2,31.71-31.71,0-17.51-14.2-31.71-31.71-31.71"/>
          </g>
        </g>
        <g class="cls-5">
          <path class="cls-16" d="M121.2,2.05c-15.9,0-28.8,12.89-28.8,28.8,0,.76.03,1.52.09,2.27,3.51-13.22,15.55-22.97,29.88-22.97,11.83,0,22.11,6.65,27.3,16.41-2.07-13.87-14.03-24.5-28.48-24.5"/>
        </g>
        <g class="cls-31">
          <rect class="cls-33" x="3.21" y="80.19" width="291.29" height="162.6"/>
        </g>
        <path class="cls-16" d="M91.48,108.72c24.07,12.66,46.05,33.28,62.54,48.55,18.78,17.39,43.71,42.33,71.37,51.36,14.81,4.83,29.97,5.53,44.3-.84,7.48-3.32,15.26-8.58,22.83-16.66,0,0-12.37,21.96-41.34,24.35-35.84,2.96-67.4-25.11-91.29-48.28-26.5-24.78-67.64-67.97-108.56-65.04-21.86,1.57-38.5,12.65-48.13,29.26,13.98-34.88,57.71-38.78,88.27-22.7"/>
        <g class="cls-3">
          <rect class="cls-40" x="3.22" y="100.35" width="291.28" height="142.44"/>
        </g>
        <g class="cls-4">
          <rect class="cls-9" x="225.39" y="61.52" width="65.51" height="137.34"/>
        </g>
        <g class="cls-32">
          <rect class="cls-41" x="256.91" y="65.2" width="68.44" height="135.3"/>
        </g>
        <g class="cls-12">
          <rect class="cls-10" x="15.27" y="122.62" width="44.33" height="74.63"/>
        </g>
        <g class="cls-14">
          <rect class="cls-2" x="-8.64" y="123.95" width="47.07" height="75.4"/>
        </g>
        <g class="cls-21">
          <g class="cls-11">
            <path class="cls-19" d="M309.03,109.2l2.73-58.74-103.91,9.7,35.76,44.35c15.23-23.32,49.76-24.32,65.42,4.69"/>
          </g>
          <g class="cls-13">
            <path class="cls-19" d="M294.5,191.21l-22.75,18.7-51.83-18.7,17.02-19.96c6.93,19.7,26.92,25.49,57.55,19.96"/>
          </g>
        </g>
        <g class="cls-35">
          <g class="cls-25">
            <path class="cls-19" d="M43.68,140.52c-13.64-8.92-27.32-6.61-43.82,7.16l-17.41-40.68,82.97,7.27-21.73,26.25Z"/>
          </g>
          <g class="cls-27">
            <path class="cls-19" d="M50.58,179.82c-2.65,11.07-15.51,15.85-37.4,15.06,18.1,13.68,36.34,12.42,54.7,0l-17.3-15.06Z"/>
          </g>
        </g>
      </g>
      <g>
        <path class="cls-49" d="M910.66,32.75c-61.48,0-65.72,102.8,5.32,102.8h79.76c7.15.27,12.92,6.05,12.92,13.09s-5.77,12.83-12.92,13.08h0s-110.03,0-110.03,0c-12.41,0-22.56,9.9-22.56,22.01h0c0,12.11,10.15,22.01,22.56,22.01h120.86c42.49,0,59.67-55.72,38.33-82.45-1.09-1.37-2.34-2.73-3.7-4.05-4.35-4.23-9.81-8.02-14.79-10.22-8.65-3.82-17.96-6.07-25.16-6.07h-79.76c-7.15-.27-12.92-6.05-12.92-13.09s5.77-12.83,12.92-13.08h0s109.71,0,109.71,0c12.41,0,22.56-9.9,22.56-22.01h0c0-12.11-10.15-22.01-22.56-22.01h-120.55,0Z"/>
        <path class="cls-42" d="M708.34,153.84c15.66-31.84,30.83-64.78,46.76-96.28,7.45-14.73,22.74-24.88,40.29-24.88,24.81,0,45.11,20.3,45.11,45.11v105.4c0,12.41-10.15,22.56-22.56,22.56h0c-12.41,0-22.56-10.15-22.56-22.56v-103.72l-50.87,100.9c-7.72,15.32-16.6,25.32-35.49,25.13-23.47-.23-27.98-6.9-36.79-25.12l-50.96-100.93v103.75c0,12.41-10.15,22.56-22.56,22.56h0c-12.41,0-22.56-10.15-22.56-22.56v-105.4c0-24.81,20.3-45.11,45.11-45.11,17.27,0,32.35,9.84,39.93,24.18,16.27,30.81,31.57,65.36,47.13,96.99h0Z"/>
        <path class="cls-37" d="M402.43,32.11h0c12.41,0,22.56,10.15,22.56,22.56v88.48c0,11.03,7.65,17.49,17.49,17.49h88.48c12.41,0,22.56,10.15,22.56,22.56h0c0,12.41-10.15,22.56-22.56,22.56h-118.98c-17.66,0-32.12-14.45-32.12-32.12V54.66c0-12.41,10.15-22.56,22.56-22.56h0Z"/>
        <path class="cls-17" d="M440.92,184.73h99.39c.84,0,1.53-.69,1.53-1.53h0c0-.84-.69-1.53-1.53-1.53h-113.73c-17.44,0-22.63-5.81-22.63-23.14V45.31c0-.84-.69-1.53-1.53-1.53h0c-.84,0-1.53.69-1.53,1.53v117.34c0,14.18,8.14,22.07,22.42,22.07h17.6Z"/>
        <path class="cls-17" d="M607.59,69.81c-3.34,4.86-5.5,11.93-6.56,20.79-.61,5.1-.86,10.8-.77,17v77.15c0,.84-.69,1.53-1.53,1.53h0c-.84,0-1.53-.69-1.53-1.53v-63.77c-.86-25.74.05-62.39,23.92-62.39,4.99,0,18.68,4.78,29.11,25.39h0l44.05,81.53c2.9,5.11,7.51,13.1,14.1,12.99,7.75-.13,13.56-12.29,17.07-18.44l3.98-6.96,37.01-69.12h0c10.43-20.61,24.12-25.39,29.11-25.39,23.87,0,24.78,36.65,23.92,62.39v63.77c0,.84-.69,1.53-1.53,1.53h0c-.84,0-1.53-.69-1.53-1.53v-77.15c.1-6.21-.15-11.9-.77-17-1.06-8.86-3.22-15.93-6.56-20.79-6.4-9.3-14.15-10.1-23.45-4.3-5.43,3.39-10.21,8.72-14.36,15.85-12.48,21.39-24.71,47.03-36.92,68.78l-1.61-2.82,1.69,2.95-6.71,11.73-6.43,11.25c-7.22,12.64-19.05,12.64-26.28,0l-8.51-14.89-8.2-14.71-29.1-54.85h0c-4.98-10.93-11.01-18.8-18.19-23.29-9.3-5.8-17.05-5-23.45,4.3h.02Z"/>
        <polygon class="cls-17" points="682.8 148.69 683.58 147.33 682.8 148.69 682.8 148.69"/>
        <path class="cls-17" d="M966.34,185.28h-84.42c-.84,0-1.53-.69-1.53-1.53h0c0-.84.69-1.53,1.53-1.53h118.2c16.89,0,30.72-13.82,30.72-30.72h0c0-16.89-13.82-30.72-30.72-30.72h-82.99c-18.58,0-33.78-15.2-33.78-33.78h0c0-18.58,15.2-33.78,33.78-33.78h116.71c.84,0,1.53.69,1.53,1.53h0c0,.84-.69,1.53-1.53,1.53h-116.71c-16.89,0-30.72,13.82-30.72,30.72h0c0,16.89,13.82,30.72,30.72,30.72h82.99c18.58,0,33.78,15.2,33.78,33.78h0c0,18.58-15.2,33.78-33.78,33.78h-33.78,0Z"/>
      </g>
    </g>
  </g>
</svg>